<svg id="efs53UiHREk1" xmlns="http://www.w3.org/2000/svg" xmlns:xlink="http://www.w3.org/1999/xlink" viewBox="0 0 300 300" shape-rendering="geometricPrecision" text-rendering="geometricPrecision"><ellipse rx="97.140022" ry="93.383225" transform="translate(150 150)" fill="#a57710" stroke-width="0"/><ellipse rx="11.002046" ry="8.855306" transform="translate(114.790456 93.102169)" fill="#53030c" stroke-width="0"/><ellipse rx="13.953815" ry="16.100556" transform="translate(111.838687 140.59881)" fill="#53030c" stroke-width="0"/><ellipse rx="9.123649" ry="13.685473" transform="translate(173.0208 110.812781)" fill="#53030c" stroke-width="0"/><ellipse rx="9.123649" ry="7.916107" transform="translate(154.773503 85.186062)" fill="#53030c" stroke-width="0"/><ellipse rx="13.685473" ry="15.027186" transform="translate(159.335327 160.456162)" fill="#53030c" stroke-width="0"/><ellipse rx="12.612102" ry="13.41713" transform="translate(99.226585 188.900478)" fill="#53030c" stroke-width="0"/><ellipse rx="9.928676" ry="14.490501" transform="translate(218.370699 116.984661)" fill="#53030c" stroke-width="0"/><ellipse rx="9.928676" ry="14.222158" transform="translate(218.370699 174.67832)" fill="#53030c" stroke-width="0"/><ellipse rx="11.270389" ry="14.758843" transform="translate(156.920244 212.246284)" fill="#53030c" stroke-width="0"/><path d="M80.17426,116.98466c3.78741,4.73426,7.52029,9.66703,11.80707,13.95382" fill="#dfb126" stroke="#cdc223" stroke-width="0.6"/><path d="M117.20554,113.22786c0,3.48587-.14794,6.77388.53668,10.19702" fill="#dfb126" stroke="#cdc223" stroke-width="0.6"/><path d="M156.92024,125.03494c0,5.61261-.81986,10.56917-1.61006,16.10056" fill="#dfb126" stroke="#cdc223" stroke-width="0.6"/><path d="M165.50721,162.6029c2.9739,2.9739,6.16765,5.18514,9.66033,7.51359" fill="#dfb126" stroke="#cdc223" stroke-width="0.6"/><path d="M119.88897,180.31351c-3.11026,1.24411-5.13862,2.4552-7.51359,4.83017" fill="#dfb126" stroke="#cdc223" stroke-width="0.6"/><path d="M142.42974,203.92766c5.55511,3.33307,10.81326,5.16809,17.17393,6.44022" fill="#dfb126" stroke="#cdc223" stroke-width="0.6"/><path d="M205.7586,170.1165c3.4254-4.28175,7.90341-7.02534,12.34376-10.19702" fill="#dfb126" stroke="#cdc223" stroke-width="0.6"/><path d="M227.76269,173.33661c-2.37497,2.37497-3.58606,4.40333-4.83017,7.51359" fill="#dfb126" stroke="#cdc223" stroke-width="0.6"/><path d="M221.85915,131.47516c-.59129-4.73035-1.88276-7.04945-4.83017-10.7337" fill="#dfb126" stroke="#cdc223" stroke-width="0.6"/><path d="M209.51539,104.10422c-4.93984-2.9639-10.10885-2.951-15.02719,0" fill="#dfb126" stroke="#cdc223" stroke-width="0.6"/><path d="M171.41074,100.88411c0,5.07923.91368,7.62444,2.68343,12.34376" fill="#dfb126" stroke="#cdc223" stroke-width="0.6"/><path d="M166.58058,85.32023c-6.77339-5.08004-16.33103-7.0691-24.15083-10.19702" fill="#dfb126" stroke="#cdc223" stroke-width="0.6"/><path d="M122.03571,82.10012c-1.27162,3.17905-2.14674,5.12017-2.14674,8.58696" fill="#dfb126" stroke="#cdc223" stroke-width="0.6"/><path d="M131.69604,88.54035c1.82438,1.82438,4.13255,3.13964,6.44022,4.29348" fill="#dfb126" stroke="#cdc223" stroke-width="0.6"/><path d="M147.25991,111.61781c-1.00443,5.02217-2.75426,9.47783-3.7568,14.4905" fill="#dfb126" stroke="#cdc223" stroke-width="0.6"/><path d="M115.0588,143.28224c-3.39654,4.75516-4.04895,8.68861-3.22011,14.4905" fill="#dfb126" stroke="#cdc223" stroke-width="0.6"/><path d="M94.12808,185.14368c-4.64663-4.64663-9.44735-7.51359-16.10056-7.51359" fill="#dfb126" stroke="#cdc223" stroke-width="0.6"/><path d="M163.89715,157.23605c4.96501-1.24125,9.69545-3.03202,14.4905-4.83017" fill="#dfb126" stroke="#cdc223" stroke-width="0.6"/><path d="M222.39584,118.05803c0-1.97596.14917-3.96595.53669-5.90354" fill="#dfb126" stroke="#cdc223" stroke-width="0.6"/><path d="M159.60367,211.97794c2.14674,0,4.29348,0,6.44022,0" fill="#dfb126" stroke="#cdc223" stroke-width="0.6"/><path d="M159.60367,163.67627c-5.32684.66586-9.69285,2.96803-14.4905,5.36685" fill="#dfb126" stroke="#cdc223" stroke-width="0.6"/><path d="M124.18245,139.52544c1.75737,1.75737,4.05056,3.07404,6.44022,3.7568" fill="#dfb126" stroke="#cdc223" stroke-width="0.6"/><path d="M189.65804,133.6219c6.72078,1.12013,13.09695,3.70343,19.85735,4.83017" fill="#dfb126" stroke="#cdc223" stroke-width="0.6"/><path d="M197.17163,173.87329c0,7.16913,1.48484,12.50479,3.7568,19.32067" fill="#dfb126" stroke="#cdc223" stroke-width="0.6"/></svg>
